<svg width="46" height="42" viewBox="0 0 46 42" fill="none" xmlns="http://www.w3.org/2000/svg">
<path fill-rule="evenodd" clip-rule="evenodd" d="M6.89991 41.4001H39.1C41.6898 41.4001 43.5298 40.2708 44.6476 38.7183C45.678 37.2854 46 35.6363 46 34.5001V20.7C46 20.09 45.7577 19.505 45.3263 19.0737C44.895 18.6424 44.31 18.4 43.7 18.4H36.8V6.90002C36.8 5.07002 36.073 3.31497 34.779 2.02097C33.485 0.726964 31.73 0 29.9 0H6.89991C5.06991 0 3.31486 0.726964 2.02086 2.02097C0.726857 3.31497 -0.000106812 5.07002 -0.000106812 6.90002V34.5001C-0.000106812 35.634 0.321894 37.2854 1.3523 38.7183C2.4701 40.2731 4.3101 41.4001 6.89991 41.4001ZM39.1 23.0001C39.71 23.0001 40.295 23.2424 40.7263 23.6737C41.1577 24.105 41.4 24.6901 41.4 25.3001V34.5001C41.4 35.1101 41.1577 35.6951 40.7263 36.1264C40.295 36.5578 39.71 36.8001 39.1 36.8001C38.49 36.8001 37.905 36.5578 37.4736 36.1264C37.0423 35.6951 36.8 35.1101 36.8 34.5001V25.3001C36.8 24.6901 37.0423 24.105 37.4736 23.6737C37.905 23.2424 38.49 23.0001 39.1 23.0001ZM16.0999 16.1C16.0999 15.49 16.3423 14.905 16.7736 14.4737C17.2049 14.0424 17.7899 13.8 18.3999 13.8C19.0099 13.8 19.5949 14.0424 20.0263 14.4737C20.4576 14.905 20.6999 15.49 20.6999 16.1C20.6999 16.71 20.4576 17.295 20.0263 17.7264C19.5949 18.1577 19.0099 18.4 18.3999 18.4C17.7899 18.4 17.2049 18.1577 16.7736 17.7264C16.3423 17.295 16.0999 16.71 16.0999 16.1ZM18.3999 9.20002C16.5699 9.20002 14.8149 9.92698 13.5209 11.221C12.2269 12.515 11.4999 14.27 11.4999 16.1C11.4999 17.93 12.2269 19.6851 13.5209 20.9791C14.8149 22.2731 16.5699 23.0001 18.3999 23.0001C20.2299 23.0001 21.985 22.2731 23.279 20.9791C24.573 19.6851 25.2999 17.93 25.2999 16.1C25.2999 14.27 24.573 12.515 23.279 11.221C21.985 9.92698 20.2299 9.20002 18.3999 9.20002ZM11.4999 27.6001C10.8899 27.6001 10.3049 27.8424 9.87357 28.2737C9.44223 28.7051 9.19991 29.2901 9.19991 29.9001C9.19991 30.5101 9.44223 31.0951 9.87357 31.5264C10.3049 31.9578 10.8899 32.2001 11.4999 32.2001H25.2999C25.9099 32.2001 26.495 31.9578 26.9263 31.5264C27.3576 31.0951 27.6 30.5101 27.6 29.9001C27.6 29.2901 27.3576 28.7051 26.9263 28.2737C26.495 27.8424 25.9099 27.6001 25.2999 27.6001H11.4999Z" fill="white"/>
</svg>
