<svg width="38" height="38" viewBox="0 0 38 38" fill="none" xmlns="http://www.w3.org/2000/svg">
<path d="M28.7486 1.44007C28.7491 1.15539 28.6651 0.876963 28.5072 0.640094C28.3493 0.403225 28.1246 0.218581 27.8616 0.109568C27.5986 0.000554757 27.3092 -0.0279166 27.03 0.0277629C26.7508 0.0834424 26.4944 0.220765 26.2934 0.422323L20.5434 6.17232C20.41 6.30606 20.3042 6.46479 20.2322 6.63942C20.1602 6.81405 20.1233 7.00117 20.1236 7.19007V15.2199L17.9932 17.3474C17.5671 17.2344 17.1206 17.2206 16.6883 17.3072C16.256 17.3939 15.8493 17.5786 15.4996 17.8472C15.1499 18.1158 14.8666 18.461 14.6713 18.8564C14.4761 19.2518 14.3743 19.6866 14.3736 20.1276C14.3738 20.5367 14.4613 20.9411 14.6303 21.3137C14.7993 21.6864 15.0459 22.0186 15.3536 22.2883C15.6613 22.558 16.023 22.7589 16.4145 22.8776C16.8061 22.9963 17.2185 23.0301 17.6241 22.9766C18.0298 22.9232 18.4193 22.7838 18.7668 22.5677C19.1143 22.3517 19.4116 22.0639 19.6389 21.7238C19.8663 21.3836 20.0184 20.9988 20.0851 20.5951C20.1519 20.1915 20.1317 19.7782 20.0259 19.3829L22.1562 17.2526H30.1861C30.375 17.2529 30.5621 17.216 30.7368 17.144C30.9114 17.072 31.0701 16.9662 31.2039 16.8328L36.9539 11.0828C37.1554 10.8818 37.2928 10.6254 37.3484 10.3462C37.4041 10.067 37.3756 9.7776 37.2666 9.51462C37.1576 9.25163 36.973 9.02693 36.7361 8.86901C36.4992 8.71109 36.2208 8.62706 35.9361 8.62757H28.7486V1.44007ZM34.3376 17.7643C34.8323 21.3442 34.1902 24.989 32.502 28.1843C30.8137 31.3796 28.1645 33.9639 24.9284 35.5726C21.6923 37.1812 18.0327 37.7328 14.4662 37.1496C10.8997 36.5664 7.60638 34.8778 5.05123 32.3221C2.49608 29.7665 0.808112 26.4729 0.225589 22.9062C-0.356933 19.3396 0.195418 15.6801 1.80467 12.4443C3.41393 9.20852 5.9988 6.55985 9.19442 4.8722C12.39 3.18455 16.035 2.54316 19.6147 3.03857L18.5136 4.1397C18.1127 4.54011 17.7946 5.01561 17.5776 5.53901C17.3605 6.06241 17.2487 6.62345 17.2486 7.19007C14.6898 7.19007 12.1885 7.94884 10.0609 9.37043C7.93337 10.792 6.27514 12.8126 5.29593 15.1766C4.31672 17.5406 4.06052 20.1419 4.55971 22.6516C5.05891 25.1612 6.29109 27.4664 8.10043 29.2758C9.90977 31.0851 12.215 32.3173 14.7246 32.8165C17.2343 33.3157 19.8356 33.0595 22.1996 32.0803C24.5636 31.1011 26.5842 29.4428 28.0058 27.3153C29.4274 25.1877 30.1861 22.6864 30.1861 20.1276C31.3295 20.1266 32.4257 19.6716 33.2336 18.8626L34.3376 17.7643ZM17.2486 10.0651C15.2584 10.0651 13.313 10.6552 11.6582 11.7609C10.0034 12.8666 8.71369 14.4381 7.95209 16.2768C7.19048 18.1155 6.99121 20.1387 7.37947 22.0907C7.76774 24.0426 8.7261 25.8356 10.1334 27.2428C11.5406 28.6501 13.3336 29.6085 15.2855 29.9967C17.2375 30.385 19.2607 30.1857 21.0994 29.4241C22.9381 28.6625 24.5096 27.3728 25.6153 25.718C26.721 24.0632 27.3111 22.1177 27.3111 20.1276H23.3465L22.9871 20.4869C22.918 21.5914 22.5316 22.6525 21.8744 23.5429C21.2171 24.4332 20.3169 25.115 19.2817 25.5063C18.2466 25.8977 17.1205 25.982 16.0386 25.7492C14.9567 25.5163 13.965 24.9762 13.1825 24.1937C12.4 23.4112 11.8599 22.4195 11.627 21.3376C11.3942 20.2557 11.4785 19.1296 11.8699 18.0945C12.2612 17.0593 12.943 16.1591 13.8333 15.5018C14.7237 14.8446 15.7848 14.4582 16.8892 14.3891L17.2486 14.0297V10.0651Z" fill="white"/>
</svg>
