<svg width="24" height="24" viewBox="0 0 24 24" fill="none" xmlns="http://www.w3.org/2000/svg">
<path d="M11.6667 0C14.8365 0 15.232 0.0116666 16.4757 0.0699999C17.7182 0.128333 18.564 0.323167 19.3083 0.6125C20.0783 0.908834 20.727 1.31017 21.3757 1.95767C21.9689 2.54088 22.4279 3.24635 22.7208 4.025C23.009 4.76817 23.205 5.61517 23.2633 6.85767C23.3182 8.10133 23.3333 8.49683 23.3333 11.6667C23.3333 14.8365 23.3217 15.232 23.2633 16.4757C23.205 17.7182 23.009 18.564 22.7208 19.3083C22.4288 20.0874 21.9696 20.7931 21.3757 21.3757C20.7923 21.9687 20.0869 22.4277 19.3083 22.7208C18.5652 23.009 17.7182 23.205 16.4757 23.2633C15.232 23.3182 14.8365 23.3333 11.6667 23.3333C8.49683 23.3333 8.10133 23.3217 6.85767 23.2633C5.61517 23.205 4.76933 23.009 4.025 22.7208C3.24605 22.4286 2.54045 21.9694 1.95767 21.3757C1.36431 20.7926 0.905253 20.087 0.6125 19.3083C0.323167 18.5652 0.128333 17.7182 0.0699999 16.4757C0.0151666 15.232 0 14.8365 0 11.6667C0 8.49683 0.0116666 8.10133 0.0699999 6.85767C0.128333 5.614 0.323167 4.76933 0.6125 4.025C0.904442 3.24588 1.3636 2.54021 1.95767 1.95767C2.54062 1.3641 3.24617 0.905018 4.025 0.6125C4.76933 0.323167 5.614 0.128333 6.85767 0.0699999C8.10133 0.0151666 8.49683 0 11.6667 0ZM11.6667 5.83333C10.1196 5.83333 8.63584 6.44792 7.54188 7.54188C6.44792 8.63584 5.83333 10.1196 5.83333 11.6667C5.83333 13.2138 6.44792 14.6975 7.54188 15.7915C8.63584 16.8854 10.1196 17.5 11.6667 17.5C13.2138 17.5 14.6975 16.8854 15.7915 15.7915C16.8854 14.6975 17.5 13.2138 17.5 11.6667C17.5 10.1196 16.8854 8.63584 15.7915 7.54188C14.6975 6.44792 13.2138 5.83333 11.6667 5.83333ZM19.25 5.54167C19.25 5.15489 19.0964 4.78396 18.8229 4.51047C18.5494 4.23698 18.1784 4.08333 17.7917 4.08333C17.4049 4.08333 17.034 4.23698 16.7605 4.51047C16.487 4.78396 16.3333 5.15489 16.3333 5.54167C16.3333 5.92844 16.487 6.29937 16.7605 6.57286C17.034 6.84635 17.4049 7 17.7917 7C18.1784 7 18.5494 6.84635 18.8229 6.57286C19.0964 6.29937 19.25 5.92844 19.25 5.54167ZM11.6667 8.16667C12.5949 8.16667 13.4852 8.53542 14.1415 9.19179C14.7979 9.84817 15.1667 10.7384 15.1667 11.6667C15.1667 12.5949 14.7979 13.4852 14.1415 14.1415C13.4852 14.7979 12.5949 15.1667 11.6667 15.1667C10.7384 15.1667 9.84817 14.7979 9.19179 14.1415C8.53542 13.4852 8.16667 12.5949 8.16667 11.6667C8.16667 10.7384 8.53542 9.84817 9.19179 9.19179C9.84817 8.53542 10.7384 8.16667 11.6667 8.16667Z" fill="#3461FF"/>
</svg>
