<svg width="41" height="41" viewBox="0 0 41 41" fill="none" xmlns="http://www.w3.org/2000/svg">
<path d="M39.4104 14.3746L14.3764 39.4068C14.1094 39.6739 13.7924 39.8857 13.4436 40.0302C13.0947 40.1747 12.7208 40.2491 12.3432 40.2491C11.9656 40.2491 11.5917 40.1747 11.2428 40.0302C10.894 39.8857 10.577 39.6739 10.31 39.4068L0.8423 29.9409C0.575262 29.6739 0.363432 29.357 0.218909 29.0081C0.0743858 28.6592 0 28.2853 0 27.9077C0 27.5301 0.0743858 27.1562 0.218909 26.8074C0.363432 26.4585 0.575262 26.1415 0.8423 25.8746L6.08378 20.6331C6.15054 20.5663 6.22981 20.5132 6.31706 20.4771C6.40432 20.4409 6.49785 20.4223 6.5923 20.4223C6.68676 20.4223 6.78028 20.4409 6.86754 20.4771C6.95479 20.5132 7.03406 20.5663 7.10082 20.6331L13.3593 26.8916C13.4991 27.0313 13.6661 27.1406 13.85 27.2128C14.034 27.2851 14.2308 27.3186 14.4282 27.3114C14.6257 27.3041 14.8195 27.2562 14.9976 27.1707C15.1758 27.0852 15.3343 26.9639 15.4635 26.8143C15.6995 26.5296 15.8196 26.1662 15.7996 25.7969C15.7796 25.4275 15.6211 25.0792 15.3557 24.8216L9.13308 18.599C8.99867 18.4643 8.92318 18.2817 8.92318 18.0914C8.92318 17.9011 8.99867 17.7185 9.13308 17.5838L11.8284 14.8885C11.8951 14.8216 11.9744 14.7686 12.0617 14.7325C12.1489 14.6963 12.2425 14.6777 12.3369 14.6777C12.4314 14.6777 12.5249 14.6963 12.6121 14.7325C12.6994 14.7686 12.7787 14.8216 12.8454 14.8885L19.1039 21.147C19.2437 21.2867 19.4107 21.396 19.5947 21.4682C19.7786 21.5405 19.9754 21.574 20.1728 21.5667C20.3703 21.5595 20.5641 21.5116 20.7422 21.4261C20.9204 21.3406 21.0789 21.2193 21.2081 21.0697C21.4442 20.7849 21.5642 20.4216 21.5442 20.0523C21.5242 19.6829 21.3657 19.3346 21.1003 19.077L14.8849 12.849C14.7505 12.7143 14.675 12.5317 14.675 12.3414C14.675 12.1511 14.7505 11.9685 14.8849 11.8338L17.5802 9.13847C17.7149 9.00406 17.8975 8.92857 18.0878 8.92857C18.2781 8.92857 18.4607 9.00406 18.5954 9.13847L24.8539 15.397C24.9937 15.5369 25.1609 15.6466 25.345 15.7189C25.529 15.7913 25.7261 15.825 25.9238 15.8177C26.1214 15.8105 26.3155 15.7625 26.4938 15.6768C26.6721 15.5911 26.8307 15.4695 26.9599 15.3197C27.1957 15.0347 27.3154 14.6713 27.2951 14.3019C27.2748 13.9325 27.116 13.5844 26.8503 13.327L20.6349 7.09902C20.5005 6.96428 20.425 6.78172 20.425 6.5914C20.425 6.40108 20.5005 6.21853 20.6349 6.08378L25.8764 0.8423C26.1433 0.575262 26.4603 0.363432 26.8092 0.218909C27.158 0.0743858 27.5319 0 27.9095 0C28.2871 0 28.661 0.0743858 29.0099 0.218909C29.3587 0.363432 29.6757 0.575262 29.9427 0.8423L39.4104 10.3082C39.6775 10.5752 39.8893 10.8922 40.0338 11.241C40.1783 11.5899 40.2527 11.9638 40.2527 12.3414C40.2527 12.719 40.1783 13.0929 40.0338 13.4418C39.8893 13.7906 39.6775 14.1076 39.4104 14.3746Z" fill="white"/>
</svg>
