<svg width="38" height="37" viewBox="0 0 38 37" fill="none" xmlns="http://www.w3.org/2000/svg">
<path d="M19.55 1.74711e-10C19.245 1.74711e-10 18.9525 0.121161 18.7368 0.336827C18.5212 0.552494 18.4 0.845001 18.4 1.15V7.13C18.4 10.2971 20.5321 12.9628 23.437 13.777C22.931 20.079 21.1094 24.7825 19.6167 27.6828C20.0399 28.1796 20.4378 28.5499 20.7483 28.8098C21.942 29.808 23 31.4341 23 33.4627C23.0015 34.6636 22.6178 35.8334 21.9052 36.8H34.5C35.415 36.8 36.2925 36.4365 36.9395 35.7895C37.5865 35.1425 37.95 34.265 37.95 33.35V32.6439C37.95 31.8435 37.6763 31.1052 37.2554 30.5003C36.0134 28.7132 32.4967 22.9333 31.7607 13.7747C33.2104 13.3683 34.4875 12.4991 35.3973 11.2994C36.3071 10.0998 36.7997 8.6356 36.8 7.13V1.15C36.8 0.845001 36.6788 0.552494 36.4632 0.336827C36.2475 0.121161 35.955 1.74712e-10 35.65 1.74711e-10H33.925C33.4675 1.74711e-10 33.0287 0.18174 32.7052 0.505241C32.3817 0.828741 32.2 1.2675 32.2 1.725V3.45C32.2003 3.60102 32.1709 3.75062 32.1133 3.89026C32.0558 4.0299 31.9714 4.15685 31.8648 4.26385C31.6496 4.47994 31.3573 4.60169 31.0523 4.6023C30.7473 4.60291 30.4546 4.48233 30.2385 4.2671C30.0224 4.05186 29.9006 3.7596 29.9 3.4546V3.45L29.8908 1.7158C29.8884 1.2599 29.7056 0.823497 29.3823 0.501984C29.0591 0.180471 28.6217 -6.48391e-06 28.1658 1.74711e-10H27.0342C26.5783 -6.48391e-06 26.1409 0.180471 25.8177 0.501984C25.4944 0.823497 25.3116 1.2599 25.3092 1.7158L25.3 3.4546C25.2994 3.7596 25.1776 4.05186 24.9615 4.2671C24.7454 4.48233 24.4527 4.60291 24.1477 4.6023C23.8427 4.60169 23.5504 4.47994 23.3352 4.26385C23.12 4.04775 22.9994 3.755 23 3.45V1.725C23 1.2675 22.8183 0.828741 22.4948 0.505241C22.1713 0.18174 21.7325 1.74711e-10 21.275 1.74711e-10H19.55ZM10.35 6.9C9.01802 6.90003 7.71452 7.28559 6.59684 8.01013C5.47916 8.73467 4.59508 9.76723 4.05131 10.9832C3.50755 12.1991 3.32735 13.5464 3.53245 14.8625C3.73756 16.1786 4.31921 17.4072 5.2072 18.4H4.6C3.99 18.4 3.40499 18.6423 2.97365 19.0737C2.54232 19.505 2.3 20.09 2.3 20.7C2.3 21.31 2.54232 21.895 2.97365 22.3263C3.40499 22.7577 3.99 23 4.6 23H5.796C4.9404 27.1354 2.6841 29.5228 1.426 30.5739C0.6302 31.2409 0 32.2667 0 33.4627C0 35.305 1.495 36.8 3.3373 36.8H17.365C19.205 36.8 20.7 35.305 20.7 33.4627C20.7 32.2667 20.0698 31.2409 19.274 30.5739C18.0159 29.5228 15.7596 27.1354 14.904 23H16.1C16.71 23 17.295 22.7577 17.7263 22.3263C18.1577 21.895 18.4 21.31 18.4 20.7C18.4 20.09 18.1577 19.505 17.7263 19.0737C17.295 18.6423 16.71 18.4 16.1 18.4H15.4928C16.3808 17.4072 16.9624 16.1786 17.1675 14.8625C17.3727 13.5464 17.1924 12.1991 16.6487 10.9832C16.1049 9.76723 15.2208 8.73467 14.1032 8.01013C12.9855 7.28559 11.682 6.90003 10.35 6.9Z" fill="white"/>
</svg>
